<svg width="1000" height="1000" viewBox="0 0 1000 1000" fill="none" xmlns="http://www.w3.org/2000/svg">
<g clip-path="url(#clip0_0_1)">
<rect width="1000" height="1000" fill="none"/>
<path d="M284.134 230.992C273.747 216.005 244.774 218.298 219.183 235.903C193.72 253.572 181.358 279.864 191.745 294.85C202.134 309.834 231.105 307.544 256.635 290.069C282.159 272.27 294.455 245.784 284.134 230.992Z" fill="#010326"/>
<path d="M364.224 85.914C342.837 91.3453 327.512 104.121 330.159 114.62C331.272 118.975 335.26 122.307 341.215 124.189C342.057 124.428 343.028 124.732 343.868 124.974C344.128 125.098 344.579 125.154 345.032 125.207C345.934 125.32 346.904 125.624 347.999 125.667C348.773 125.714 349.675 125.828 350.579 125.937C351.351 125.988 352.255 126.098 353.027 126.149C354.764 126.181 356.633 126.271 358.493 126.045C359.329 125.964 360.294 125.944 361.127 125.867C363.633 125.623 366.138 125.383 368.767 124.881C370.306 124.66 371.778 124.245 373.38 123.892C381.512 121.87 388.723 118.773 394.444 115.124C403.788 109.219 409.051 101.848 407.382 95.3174C405.057 84.8123 385.546 80.6186 364.224 85.914Z" fill="#010326"/>
<path d="M433.705 112.637C422.63 115.485 412.612 119.795 404.862 125.027C391.522 133.969 384.02 145.372 386.53 155.49C390.505 171.563 418.18 178.687 448.273 171.033C462.168 167.616 474.146 161.532 482.57 154.551C492.515 146.378 497.543 136.826 495.446 128.179C491.342 112.045 463.736 105.112 433.705 112.637Z" fill="#010326"/>
<path d="M341.673 134.601C340.831 134.362 339.86 134.058 339.02 133.816C338.179 133.574 337.337 133.335 336.564 133.284C335.853 133.104 335.271 132.989 334.499 132.938C333.595 132.828 332.563 132.653 331.53 132.482C330.628 132.369 329.724 132.259 328.761 132.275C327.214 132.176 325.605 132.209 323.868 132.178C323.096 132.126 322.322 132.079 321.618 132.218C315.959 132.393 309.738 133.413 303.399 135.013C302.311 135.291 301.351 135.633 300.324 135.782C297.957 136.404 295.463 137.291 293.163 138.107C286.966 140.413 281.167 143.224 276.076 146.219C257.122 157.583 246.36 173.489 250.905 185.689C256.673 201.342 284.866 205.371 313.931 194.52C343.066 183.86 361.96 162.588 356.321 146.997C353.959 141.252 348.735 137.168 341.673 134.601Z" fill="#010326"/>
<path d="M157.743 239.462C164.91 247.495 183.982 242.24 200.556 227.511C217.07 212.91 224.627 194.365 217.46 186.332C210.293 178.299 191.221 183.553 174.647 198.283C158.072 213.013 150.576 231.429 157.743 239.462Z" fill="#010326"/>
<path d="M116.636 350.526C127.946 356.55 147.049 342.867 159.475 319.788C171.838 296.841 172.737 273.209 161.427 267.185C150.117 261.161 131.012 274.848 118.716 297.989C106.292 321.064 105.455 344.564 116.636 350.526Z" fill="#010326"/>
<path d="M106.356 371.441C93.7705 369.433 80.1773 388.607 75.9768 414.487C71.8377 440.238 78.768 462.818 91.3524 464.829C103.937 466.84 117.531 447.663 121.732 421.783C125.871 396.032 118.94 373.452 106.356 371.441Z" fill="#010326"/>
<path d="M206.789 331.17C190.798 322.596 166.623 336.893 152.583 363.027C138.543 389.161 140.112 417.31 155.973 425.823C171.965 434.393 196.14 420.097 210.179 393.966C224.349 367.894 222.781 339.741 206.789 331.17Z" fill="#010326"/>
<path d="M562.165 94.4753C562.178 85.0798 544.272 77.5099 522.141 77.4834C500.138 77.5182 482.273 85.2596 482.258 94.6546C482.245 104.05 500.147 111.618 522.282 111.647C544.348 111.479 562.214 103.738 562.165 94.4753Z" fill="#010326"/>
<path d="M704.85 194.295C675.877 189.898 662.266 164.616 660.864 161.874C670.821 167.732 684.653 174.479 702.185 179.484C718.807 184.055 733.57 185.508 744.708 185.877C740.256 188.534 724.916 197.32 704.85 194.295ZM631.341 256.311C598.93 253.78 582.203 227.014 580.48 224.281C590.813 229.681 605.926 236.084 624.973 239.577C647.378 243.717 666.332 242.388 678.775 240.349C675.167 243.568 657.177 258.26 631.341 256.311ZM520.452 261.334C495.58 266.055 469.515 255.553 453.09 234.508C464.814 238.659 484.739 244.325 510.005 243.132C535.072 242.007 554.429 234.818 565.524 229.584C563.157 233.556 548.788 256.03 520.452 261.334ZM632.911 163.698C628.992 167.247 611.779 182.31 585.972 181.971C553.025 181.571 533.886 156.526 531.641 153.545C542.289 158.616 558.951 165.115 580.354 167.344C602.726 169.876 621.259 166.751 632.911 163.698ZM436.283 190.18C424.98 191.17 423.12 188.051 403.17 187.789C391.971 187.553 379.553 187.534 365.718 190.825C356.689 193.057 324.735 200.941 312.99 225.935C307.245 238.333 312.951 240.734 307.199 256.157C301.633 271.189 291.836 280.386 272.294 298.001C246.43 321.533 239.348 321.347 235.142 333.523C229.711 348.941 239.519 353.77 235.87 374.814C231.811 398.054 216.344 413.469 211.037 418.59C197.085 432.498 181.698 438.712 169.633 443.639C151.439 451.065 147.468 448.699 135.075 456.656C132.149 458.449 119.38 466.864 109.137 483.017C104.325 490.444 99.3905 498.129 98.2394 508.574C96.5869 523.083 103.524 532.602 106.856 541.996C111.611 555.095 112.401 576.183 92.1471 610.347C90.3726 591.66 89.9527 576.485 89.8859 566.255C89.7805 560.79 89.8012 548.369 87.4333 532.266C85.6029 520.722 84.0582 510.585 80.3167 510.077C75.2208 509.404 68.9125 525.995 67.1434 531.046C61.6934 545.501 55.5323 569.81 56.9338 609.351C51.6597 589.314 47.9267 569.053 45.7326 548.572C52.8573 537.627 58.4005 517.96 59.7686 495.35C61.4211 467.461 56.2597 443.175 47.6571 434.141C48.9625 425.045 50.5907 415.939 52.477 406.961C64.5664 406.666 77.5977 384.992 82.1404 356.721C84.5581 341.943 84.1632 328.054 81.5866 317.742C106.203 262.711 142.803 211.956 190.752 169.15C200.685 160.338 210.882 151.973 221.415 144.243C221.483 144.433 221.552 144.624 221.682 144.686C227.326 153.91 247.11 152.177 266.003 140.943C266.701 140.48 267.4 140.017 268.037 139.683C268.737 139.216 269.435 138.754 270.072 138.42C286.392 127.235 295.244 112.33 290.253 103.742C290.056 103.486 289.919 103.104 289.721 102.851C323.247 86.3142 358.343 74.5112 394.168 67.1964C396.906 75.832 418.49 80.692 443.857 78.2771C469.223 75.8622 489.323 67.1104 490.567 58.1427C546.69 59.0617 602.501 70.6674 654.778 92.6999C653.484 92.4 652.32 92.1666 651.03 91.8684C629.084 88.1105 610.172 91.6877 608.6 100.341C606.901 108.929 623.119 119.361 644.69 123.582C666.453 127.732 685.3 124.282 686.933 115.5C687.522 112.594 685.914 109.278 682.766 106.188C698.552 114.186 713.847 123.224 728.706 133.167C721.237 136.141 713.11 138.485 704.445 139.615C678.98 143.579 656.216 137.515 656.216 137.515C646.323 134.874 644.286 132.792 622.655 125.355C602.705 118.403 592.73 114.927 586.026 114.284C564.694 112.247 547.757 121.709 531.717 130.636C514.785 140.097 515.426 143.431 492.142 160.543C491.443 161.005 490.685 161.599 489.794 162.132C488.08 163.386 486.237 164.579 484.27 166.033C453.731 187.333 443.607 189.523 436.283 190.18ZM386.236 284.56C362.717 292.796 336.089 286.487 318.243 268.427C328.137 271.069 355.663 277.168 386.509 265.254C407.394 257.196 420.921 244.519 427.916 236.857C427.378 238.992 419.212 272.86 386.236 284.56ZM323.226 384.077C298.47 401.6 271.42 396.844 266.64 395.842C278.477 392.399 299.496 384.727 320.191 366.698C338.795 350.385 349.072 332.819 354.268 321.91C354.139 325.193 354.012 362.257 323.226 384.077ZM854.958 184.532C828.592 154.929 799.472 129.43 768.244 108.025C611.644 0.619325 402.787 -3.41798 241.442 101.523C221.614 114.387 202.653 128.775 184.564 145.012C134.271 189.729 95.5925 242.841 69.0266 300.292C55.3094 329.762 44.8931 360.33 37.5811 391.739C34.0104 406.93 31.2152 422.166 29.259 437.647C23.9687 477.188 23.8365 517.273 28.5212 556.945C31.8154 584.483 37.553 611.909 45.6577 638.714C65.0169 702.1 98.0224 762.592 145.038 815.414C319.293 1011.52 619.449 1029.25 815.498 855.124C1011.35 680.743 1029.21 380.642 854.958 184.532Z" fill="#010326"/>
<path fill-rule="evenodd" clip-rule="evenodd" d="M637 606.571C636.872 609.438 636.661 612.33 635.977 615.124C634.265 622.21 630.651 628.769 629.858 636.087C627.939 645.505 625.049 654.717 622.257 663.895C621.442 666.689 620.921 669.553 620.283 672.389C620.06 673.072 619.956 674.265 619.584 674.991C619.535 675.215 619.486 675.431 619.473 675.608C619.293 677.16 618.387 678.481 618.088 679.992C618.024 681.304 618.257 682.631 618.027 683.941C617.727 686.126 616.667 687.986 616.565 690.157C616.656 693.951 617.976 697.573 618.454 701.311C618.744 703.974 618.235 706.61 617.759 709.216C617.464 711.35 617.451 713.512 617.519 715.661C617.48 722.831 619.347 729.861 619.105 737.033C619.063 738.524 618.742 739.99 618.669 741.481C618.888 744.794 619.262 748.103 619.455 751.422C619.563 753.629 619.772 755.824 620.02 758.016C620.326 762.502 620.374 767.01 620.418 771.506C620.308 775.345 620.394 779.217 619.783 783.016C619.672 783.487 619.69 784.18 619.324 784.47C619.223 785.008 618.367 785.223 617.92 785.486C616.594 786.179 615.065 786.022 613.672 786.427C613.497 787.193 614.002 787.9 614.211 788.609C614.397 789.148 614.518 789.707 614.614 790.267C614.755 791.076 614.811 791.9 614.818 792.723C614.822 793.26 614.78 793.846 615.174 794.268C616.487 795.772 617.395 797.55 618.018 799.442C618.693 801.174 619.247 802.945 619.533 804.781C619.687 805.422 620.217 805.865 620.474 806.457C620.731 806.992 620.821 807.575 620.883 808.07C620.93 809.936 621.96 813.029 619.606 813.823C617.648 814.32 615.592 814.157 613.588 814.263C607.954 814.475 602.317 814.51 596.679 814.515C589.554 814.641 582.43 815.182 575.296 814.937C572.153 814.93 568.966 814.658 565.848 814.705C563.544 814.822 561.275 814.526 559.049 814.111C556.982 813.751 554.9 813.289 552.978 812.423C552.159 812.052 551.394 811.374 551.379 810.411C551.37 810.128 551.34 809.687 551.375 809.267C550.426 809.278 549.478 809.263 548.528 809.245C545.508 809.15 542.368 808.64 539.439 808.174C537.447 807.913 535.373 807.635 533.655 806.508C532.293 805.722 531.752 804.675 532.218 803.122C532.487 801.888 532.985 800.569 534.156 799.937C535.283 799.294 536.581 799.045 537.852 798.877C539.808 798.625 541.768 798.398 543.736 798.27C545.536 798.183 547.319 797.844 548.989 797.163C550.046 796.668 550.904 795.845 552.062 795.553C552.329 795.323 552.459 794.959 552.749 794.738C553.102 794.371 553.621 794.316 554.082 794.175C554.51 792.81 555.184 792.154 556.662 792.456C556.939 790.4 559.119 790.782 559.99 789.212C560.699 787.906 561.474 786.59 562.674 785.671C563.084 785.349 563.527 785.092 563.959 784.847C564.384 784.651 564.74 784.363 564.736 783.855C564.016 783.834 563.297 783.869 562.577 783.862C562.167 783.864 561.667 783.866 561.392 783.542C561.252 783.389 561.204 783.213 561.223 783.045C561.223 783.043 561.223 783.043 561.223 783.043C560.61 781.355 561.042 779.478 560.829 777.715C560.674 774.59 560.431 771.469 560.24 768.348C560.092 765.189 560.287 762.078 560.2 758.945C560.123 755.23 559.388 751.752 558.978 748.112C558.714 745.077 558.506 742.024 558.007 739.045C557.491 736.302 556.813 733.593 556.223 730.866C554.618 723.33 553.091 715.776 551.543 708.229C550.341 702.784 550.329 697.11 551.297 691.628C552.025 687.762 553.59 684.111 554.111 680.208C554.391 677.026 554.37 673.819 554.787 670.642C555.06 667.535 555.766 664.418 556.195 661.344C556.648 659.024 556.242 656.655 556.761 654.38C556.978 653.167 557.92 652.237 558.097 651.024C558.209 647.325 559.516 643.879 560.749 640.438C561.806 637.739 562.477 634.934 563.203 632.135C563.538 630.795 564.145 629.514 564.911 628.383C565.365 627.716 565.332 626.788 565.112 626.072C564.701 624.73 564.672 623.265 565.341 622C566.882 619.736 566.297 616.995 566.39 614.435C566.439 610.943 568.33 609.476 571.307 608.082C570.565 607.301 569.44 607.389 568.455 607.378C567.27 607.369 566.087 607.174 565.002 606.687C563.396 606.026 562.397 604.537 561.088 603.466C558.732 601.407 556.853 598.624 556.291 595.55C554.009 599.645 552.391 604.1 550.577 608.401C549.347 611.376 547.791 614.232 546.804 617.301C546.432 618.569 546.568 619.775 546.694 621.052C546.714 621.211 546.743 621.403 546.762 621.6C547.282 621.565 547.891 621.721 548.218 621.913C549.424 622.565 549.786 624.012 549.986 625.269C550.351 626.938 549.879 628.615 548.715 629.856C549.553 633.204 549.003 635.901 546.353 638.192C546.763 640.06 545.113 641.573 543.568 642.289C543.843 643.976 542.966 645.083 541.486 645.75C541.793 647.87 540.429 650.245 538.317 650.801C537.514 651.022 536.67 651.049 535.843 650.998C535.254 651.018 534.507 650.748 534.008 651.137C533.339 652.31 532.475 653.673 530.94 653.558C530.275 655.228 528.226 656.297 526.587 655.31C527.078 657.796 525.383 660.882 522.538 660.2C522.027 660.124 521.056 659.754 520.351 659.263C518.017 664.301 515.684 669.335 513.349 674.371C510.832 679.804 508.314 685.233 505.798 690.665C503.207 696.257 500.614 701.848 498.023 707.438C495.432 713.032 492.839 718.623 490.248 724.217C487.672 729.773 485.098 735.332 482.519 740.891C479.941 746.449 477.366 752.01 474.79 757.569C472.236 763.078 469.684 768.586 467.13 774.093C464.626 779.502 462.12 784.907 459.613 790.316C458.155 793.459 456.699 796.604 455.24 799.749C455.214 799.803 455.179 799.855 455.139 799.897C455.138 799.897 455.138 799.898 455.138 799.898C453.933 802.802 452.554 805.658 450.467 808.03C446.112 812.273 439.417 812.255 433.725 812.161C430.428 812.092 424.681 811.325 422.774 808.335C421.202 805.543 422.163 801.844 424.419 799.725C425.86 798.358 427.797 797.813 429.718 797.569C430.92 797.369 432.134 797.234 433.326 796.984C433.654 796.909 434.118 796.752 434.527 796.724C434.877 795.829 435.437 794.928 435.727 794.639C437.964 791.882 442.172 791.049 444.783 793.764C445.476 794.575 446.305 795.652 446.502 796.761C448.9 797.04 451.465 796.14 452.968 794.206C453.088 794.06 453.202 793.866 453.326 793.689C455.231 789.536 457.132 785.38 459.037 781.227C461.519 775.811 464 770.396 466.481 764.98C468.945 759.602 471.41 754.225 473.875 748.845C476.391 743.354 478.908 737.859 481.425 732.368C483.862 727.049 486.299 721.728 488.737 716.41C491.274 710.879 493.807 705.346 496.342 699.813C498.778 694.503 501.211 689.191 503.644 683.88C506.11 678.495 508.58 673.11 511.046 667.725C512.814 663.864 514.582 660.001 516.353 656.142C516.182 656.127 516.013 656.082 515.848 656.001C513.69 655.067 514.241 652.714 514.948 650.965C515.43 649.52 515.642 647.941 515.745 646.446C515.901 643.234 515.889 639.811 517.622 636.973C518.755 635.04 520.457 633.518 521.114 631.398C521.909 629.233 521.507 626.837 522.377 624.69C523.769 621.949 524.262 618.773 524.607 615.755C524.99 607.479 523.135 598.868 525.281 590.739C525.948 588.354 527.396 586.256 527.956 583.837C528.412 580.813 528.165 577.796 528.051 574.768C528.048 574.755 528.045 574.739 528.044 574.724C527.722 572.573 527.612 570.417 528.195 568.305C528.236 566.717 527.872 565.239 527.647 563.687C527.456 562.287 527.417 560.857 527.678 559.464C528.056 558.043 527.868 556.568 527.354 555.205C526.911 553.845 526.056 552.645 525.758 551.24C525.614 550.165 525.836 549.069 525.64 547.996C525.429 546.991 524.67 546.249 524.309 545.313C524.047 544.7 524.046 544.033 524.027 543.378C524.069 542.401 523.45 541.674 522.881 540.959C522.346 540.234 521.96 539.327 522.195 538.417C522.306 537.875 522.64 537.359 522.562 536.791C522.36 536.073 522.016 535.408 521.917 534.664C521.439 530.958 523.128 528.734 525.458 526.15C525.93 525.502 525.882 524.667 526.081 523.919C526.41 522.313 527.752 521.122 528.637 519.85C529.85 518.149 529.412 515.95 529.387 514.003C529.067 511.548 529.602 509.189 529.962 506.79C528.551 507.664 527.574 509.078 526.232 510.046C524.445 511.294 522.208 513.449 519.925 512.14C518.994 511.645 518.584 510.635 518.182 509.721C517.986 509.308 517.678 508.902 517.2 508.829C516.2 508.661 515.034 508.758 514.268 507.969C514.029 507.759 513.93 507.4 513.661 507.234C512.505 507.329 511.46 506.891 510.463 506.344C510.205 506.172 509.829 506.096 509.559 505.926C509.515 505.944 509.468 505.955 509.42 505.964C508.394 506.182 507.404 506.712 506.335 506.62C503.844 506.262 505.091 503.05 503.805 501.59C503.741 501.557 503.683 501.52 503.635 501.478C502.861 502.242 502.098 503.017 501.216 503.66C498.082 505.847 494.196 507.98 490.263 507.181C487.842 506.458 486.028 504.36 484.789 502.235C483.531 500.153 485.469 498.074 486.543 496.4C487.948 494.264 489.67 492.278 490.797 489.979C492.838 486.427 492.03 482.313 492.096 478.425C492.131 477.221 492.062 475.994 492.105 474.79C492.024 474.671 491.981 474.529 491.991 474.379C492.237 471.804 493.177 469.266 494.662 467.148C496.756 464.057 499.454 461.493 502.321 459.137C503.188 458.167 503.811 456.954 505.162 456.658C506.098 456.44 507.058 456.68 508.001 456.696C510.728 456.448 513.444 455.801 516.201 456.06C520.735 456.563 525.126 458.871 528.403 462.012C529.282 462.863 530.137 463.755 530.833 464.762C531.627 465.913 532.083 467.251 532.777 468.457C533.446 469.568 534.318 470.544 535.056 471.609C536.586 473.856 537.928 476.232 539.583 478.392C539.9 478.746 540.182 479.194 540.628 479.384C541.611 478.96 542.681 478.467 543.72 479.015C544.913 479.667 545.737 480.842 546.95 481.485C547.353 481.763 547.815 481.884 548.271 482.014C549.107 481.743 549.944 481.471 550.768 481.162C551.181 481.009 551.589 480.84 552.003 480.689C552.457 480.521 552.917 480.371 553.385 480.245C554.329 479.991 555.304 479.91 556.279 479.89C557.268 479.87 558.255 479.949 559.235 480.08C560.265 480.217 561.296 480.373 562.317 480.575C563.142 480.738 563.961 480.937 564.771 481.158C565.628 481.396 566.477 481.65 567.325 481.911C568.189 482.174 569.052 482.443 569.905 482.739C571.737 483.375 573.453 484.278 575.112 485.277C575.922 485.765 576.684 486.306 577.389 486.936C578.129 487.6 578.811 488.329 579.484 489.06C580.091 489.721 580.653 490.419 581.225 491.112C581.845 491.866 582.485 492.605 583.101 493.363C584.296 494.839 585.517 496.303 586.522 497.919C587.049 498.761 587.55 499.618 588.044 500.48C588.524 501.323 588.991 502.169 589.408 503.042C589.836 503.932 590.241 504.833 590.675 505.718C591.109 506.6 591.576 507.468 592.021 508.345C592.482 509.257 592.931 510.174 593.348 511.108C593.758 512.031 594.116 512.977 594.482 513.918C595.182 515.726 595.877 517.533 596.522 519.36C596.967 520.616 597.407 521.871 597.853 523.124C598.3 524.371 598.785 525.6 599.29 526.803C599.297 526.819 599.303 526.838 599.31 526.85C599.31 526.852 599.312 526.856 599.314 526.859C599.709 527.79 600.121 528.711 600.575 529.615C601.042 530.547 601.54 531.466 602.063 532.367L602.103 532.435C602.605 533.286 603.117 534.13 603.633 534.973C604.169 535.846 604.718 536.709 605.237 537.591C606.204 539.234 607.05 540.946 607.881 542.66C608.31 543.539 608.716 544.425 609.123 545.313C609.538 546.213 609.929 547.124 610.279 548.053C610.627 548.979 610.92 549.926 611.225 550.867C611.524 551.799 611.83 552.727 612.129 553.659C612.359 554.366 612.589 555.071 612.838 555.771C613.097 556.504 613.384 557.222 613.652 557.858C614.397 559.592 615.24 561.282 616.1 562.962C616.97 564.663 617.772 566.399 618.656 568.093C618.892 568.542 619.134 568.99 619.389 569.43C619.615 569.816 619.852 570.196 620.102 570.565C620.357 570.938 620.624 571.302 620.875 571.674C621.338 572.361 621.749 573.129 621.665 573.984C621.626 574.353 621.546 574.717 621.457 575.075C621.349 575.517 621.218 575.959 621.045 576.383C621.019 576.444 620.996 576.506 620.97 576.566C621.007 576.577 621.043 576.592 621.076 576.608C623.089 577.454 623.687 579.749 624.928 581.355C628.537 585.697 632.513 589.922 634.664 595.23C636.178 598.792 636.887 602.722 637 606.571Z" fill="white"/>
<path fill-rule="evenodd" clip-rule="evenodd" d="M150.882 716.679C150.503 717.891 149.714 719.009 150.107 720.324C150.404 721.882 152.242 722.811 153.384 721.449C154.081 720.688 154.462 719.7 154.992 718.824C155.079 720.959 155.098 723.105 155.328 725.231C155.416 726.476 155.923 727.469 157.323 727.347C158.413 727.289 159.847 727.096 160.26 725.911C160.42 725.504 160.469 725.002 160.832 724.708C162.226 724.364 162.981 723.397 163.224 721.99C163.276 721.615 163.366 721.226 163.459 720.833C164.013 722.277 164.696 723.671 165.517 724.982C166.97 727.12 168.546 729.179 170.122 731.224C172.723 734.227 175.726 736.947 179.173 738.936C185.642 742.366 193.342 744.348 200.673 743.908C200.919 743.889 201.165 743.861 201.411 743.831C200.527 744.736 199.663 745.688 199.172 746.871C198.735 747.886 198.423 748.978 197.682 749.824C197.243 750.37 196.704 750.852 196.07 751.136C194.574 751.716 194.296 753.313 193.829 754.66C193.584 755.212 192.797 755.075 192.342 755.384C190.847 756.054 189.907 757.404 189.001 758.697C188.516 758.922 187.917 758.829 187.41 759.043C186.249 759.429 185.403 760.385 184.641 761.297C182.475 764.405 180.972 767.934 179.204 771.286C177.072 773.724 174.615 776.409 174.89 779.839C174.964 781.839 175.89 783.627 176.492 785.495C176.759 786.316 177.295 787.19 177.813 787.83C180.155 791.107 183.413 793.554 186.988 795.324C189.335 796.552 189.689 799.319 190.768 801.486C192.554 804.841 194.389 808.769 197.971 810.486C199.143 810.962 200.409 811.15 201.656 811.298C203.566 811.505 205.482 811.775 207.405 811.761C210.707 811.591 214.007 811.417 217.312 811.33C220.386 811.176 229.442 811.84 230.181 807.898C230.514 805.779 229.834 803.499 228.441 801.879C227.88 801.232 227.158 800.785 226.54 800.204C225.948 799.548 225.357 798.889 224.701 798.298C224.072 797.437 223.382 797.106 222.311 797.227C222.276 795.515 221.583 794.346 219.854 793.972C219.739 793.071 219.117 792.324 218.286 792.078C217.589 791.845 217.47 791.63 217.508 790.907C217.505 790.227 217.339 789.601 217.079 789.015C217.244 789.116 217.411 789.214 217.58 789.311C219.444 790.481 221.646 790.925 223.54 792.029C224.706 792.817 225.772 793.747 226.507 794.913C226.949 795.695 227.14 796.462 227.611 797.212C228.024 797.973 228.797 798.536 229.04 799.385C229.315 801.342 230.925 802.552 232.419 803.607C238.247 807.746 246.821 807.755 253.693 807.494C256.325 807.379 261.555 807.398 263.365 805.301C263.41 805.218 263.442 805.138 263.462 805.061C263.55 805.016 263.633 804.944 263.703 804.839C265.097 802.909 264.384 800.184 262.853 798.551C261.952 797.712 260.762 797.276 259.729 796.626C258.708 796.026 257.89 795.389 257.009 794.684C256.434 794.229 255.768 793.886 255.047 793.735C254.305 793.557 253.39 793.74 252.829 793.113C252.299 792.42 251.427 792.117 250.872 791.483C250.818 790.429 251.242 789.373 250.915 788.324C250.699 787.432 250.246 786.588 249.77 785.787C249.908 785.809 250.05 785.82 250.199 785.821C251.411 785.742 252.078 784.474 252.053 783.368C251.921 782.039 251.161 780.852 250.449 779.754C249.748 778.578 248.652 777.744 247.737 776.768C247.725 776.69 247.698 776.613 247.658 776.544C249.335 774.811 248.747 773.738 247.385 772.046C247.924 771.303 248.339 770.342 248.224 769.422C249.543 770.542 251.021 772.108 252.89 771.56C255.383 770.859 257.488 769.252 259.549 767.75C261.69 766.224 263.805 764.661 265.931 763.12C268.122 761.501 270.464 760.111 272.747 758.634C275.646 756.693 278.487 754.521 281.264 752.435C282.833 751.272 284.501 749.993 286.022 748.832C286.124 748.734 286.241 748.653 286.36 748.581C287.008 749.88 287.605 751.203 288.171 752.543C289.812 756.156 291.917 759.53 293.856 762.985C295.589 765.686 297.778 768.223 299.665 770.777C302.762 774.766 305.704 778.742 309.056 782.508C310.835 784.555 312.509 786.783 314.432 788.683C318.341 792.514 323.206 795.232 327.234 798.893C329.855 801.228 332.671 803.351 335.464 805.465C336.587 806.404 337.754 807.279 338.945 808.125C340.119 809.144 341.391 810.089 342.378 811.294C343 812.123 343.395 813.114 344.19 813.81C345.491 814.901 347.35 814.879 348.953 814.876C350.245 814.886 351.532 815.013 352.824 814.998C356.334 815.063 357.082 813.294 354.073 811.27C356.892 812.32 359.487 813.797 362.436 814.466C363.45 814.731 364.494 814.843 365.533 814.66C366.559 814.517 367.393 813.887 368.317 813.483C368.908 813.395 369.5 813.663 370.069 813.794C371.155 814.113 372.289 814.306 373.423 814.207C374.69 814.102 375.914 813.561 376.89 812.748C377.519 812.199 378.055 811.47 378.903 811.257C381.91 810.8 385.12 811.453 388.023 810.32C391.015 808.89 386.315 806.068 384.859 805.453C382.381 804.352 379.635 804.188 377.057 803.447C376.134 802.942 375.397 802.129 374.336 801.892C374.101 801.824 373.774 801.752 373.456 801.739C373.003 798.472 372.551 795.209 372.099 791.943C371.408 786.961 370.718 781.976 370.028 776.993C369.34 772.03 368.651 767.065 367.961 762.1C367.244 756.927 366.527 751.755 365.81 746.585C365.091 741.394 364.372 736.208 363.653 731.017C362.945 725.913 362.237 720.811 361.53 715.707C360.815 710.551 360.1 705.395 359.384 700.24C358.692 695.246 357.999 690.251 357.307 685.257C357.274 685.015 357.242 684.773 357.208 684.534C359.895 686.258 363.265 686.738 366.415 686.469C368.531 686.335 370.56 685.697 372.451 684.755C375.052 683.726 377.812 681.917 377.994 678.842C378.67 669.763 372.877 658.956 368.82 651.012C366.777 647.329 364.881 643.551 363.006 639.787C361.414 636.689 359.695 633.661 358.387 630.438C356.999 626.773 355.297 623.236 353.913 619.574C353.705 618.973 353.509 618.372 353.308 617.768C353.241 617.586 353.185 617.373 353.105 617.175C353.121 617.148 353.135 617.119 353.148 617.09C355.076 613.04 356.735 611.07 355.729 606.323C355.669 605.535 355.871 604.77 355.977 603.999C356.273 602.04 355.475 599.993 353.775 598.942C353.685 598.859 353.543 598.788 353.547 598.649C353.541 598.157 353.608 597.665 353.574 597.171C353.559 595.436 352.839 593.654 351.135 592.985C351.11 590.644 350.134 587.976 347.795 587.08C347.368 586.91 346.916 586.847 346.458 586.831C346.212 586.838 346.011 586.786 345.933 586.528C343.901 581.565 338.857 582.023 337.434 586.743C333.347 585.767 334.862 591.549 333.821 593.796C332.54 597.115 331.059 600.534 331.152 604.161C331.395 608.98 332.917 613.799 335.153 618.032C336.28 620.107 336.798 622.389 337.743 624.53C339.204 627.738 341.048 630.75 342.475 633.976C344.812 638.57 345.428 643.719 346.253 648.741C345 648.168 343.802 647.542 342.601 646.88C342.013 646.575 341.404 646.318 340.824 646.031C340.59 645.881 340.15 645.767 340.175 645.428V645.427C345.168 646.617 345.38 642.759 342.772 639.582C340.498 636.359 336.763 634.214 335.124 630.555C334.479 627.79 334.445 624.95 333.728 622.194C332.813 618.392 331.461 614.715 328.886 611.746C325.543 607.555 321.38 605.555 316.488 603.732C315.812 603.421 315.505 602.695 314.944 602.24C313.562 601.025 310.882 600.855 309.903 602.532C309.128 602.403 308.251 602.442 307.893 602.541C304.239 603.286 300.975 605.277 298.197 607.716C295.044 610.287 292.293 613.339 289.974 616.683C288.137 619.819 286.73 623.112 282.643 623.386C280.77 623.792 278.919 624.326 277.1 624.932C275.41 625.413 274.05 626.598 272.301 626.62C268.43 625.581 268.058 626.039 264.635 627.691C263.492 628.001 262.279 627.595 261.143 628.021C259.109 628.715 257.062 629.302 254.901 629.415C249.845 630.214 244.755 631.1 239.928 632.845C234.189 634.786 228.727 637.381 223.317 640.096C218.921 642.124 214.816 644.696 210.547 646.958C208.475 648.02 206.298 648.846 204.086 649.549C203.259 649.686 202.44 649.867 201.645 650.139C198.861 651.088 196.512 653.048 194.808 655.423C194.422 655.921 194.048 656.424 193.891 657.045C193.672 657.799 193.805 658.596 193.609 659.35C191.553 659.822 190.428 661.691 189.184 663.214C187.948 664.948 186.673 666.639 185.286 668.248C183.814 670.037 181.31 670.23 179.779 671.9C178.742 673.098 177.8 674.622 177.879 676.261C178.012 676.921 177.939 677.574 177.678 678.193C177.043 679.646 176.175 680.871 175.437 682.256C174.481 684.099 173.165 685.733 172.214 687.569C171.572 687.96 171.366 689.463 171.12 690.023C169.252 690.276 169.775 691.989 169.177 693.244C168.903 693.764 168.348 693.809 167.854 693.971C166.614 694.51 166.763 695.962 166.632 697.075C164.836 697.246 164.687 698.646 164.949 700.138C163.779 699.077 162.74 698.871 161.86 700.374C160.442 699.376 159.214 699.676 158.634 701.353C157.16 700.884 156.385 701.656 155.794 702.904C155.307 703.914 154.669 704.828 153.765 705.483C153.251 705.939 152.839 706.516 152.647 707.182C152.282 708.226 152.618 709.376 152.309 710.423C151.933 710.978 151.457 711.478 151.279 712.145C150.903 713.624 151.123 715.18 150.882 716.679ZM248.355 783.203C247.832 781.933 247.59 780.577 247.678 779.212C247.68 778.975 247.683 778.742 247.687 778.508C247.832 778.638 247.969 778.762 248.082 778.887C249.044 779.852 249.88 781.1 250.433 782.304C251.362 784.265 250.095 785.457 248.614 783.565C248.523 783.448 248.436 783.327 248.355 783.203ZM304.175 690.864C305.158 689.046 305.465 686.921 306.001 684.936C306.473 683.533 307.372 682.463 307.789 681.062C308.364 679.662 308.078 678.095 308.235 676.647C308.652 674.708 310.64 673.585 312.092 672.542C312.994 671.855 314.644 671.206 314.374 669.824C314.248 669.339 314.083 669.025 313.972 668.591C318.677 669.435 321.01 669.096 322.568 664.598C324.362 665.941 326.325 667.032 328.291 668.102C335.288 671.947 342.125 676.075 348.935 680.238C349.458 680.559 349.986 680.871 350.466 681.249C350.581 681.569 350.894 681.682 351.176 681.63C351.318 681.707 351.467 681.823 351.618 681.937C351.618 681.962 351.622 681.987 351.625 682.012C351.958 684.231 352.271 686.452 352.591 688.676C352.95 691.163 353.311 693.649 353.673 696.137C354.417 701.265 355.161 706.392 355.903 711.519C356.652 716.68 357.4 721.842 358.148 727.004C358.89 732.122 359.634 737.24 360.375 742.359C361.135 747.613 361.897 752.866 362.659 758.119C363.409 763.276 364.154 768.434 364.902 773.59C365.657 778.786 366.408 783.985 367.163 789.181C367.744 793.177 368.319 797.174 368.901 801.171C368.229 800.88 367.469 800.666 367.145 800.487C364.456 799.228 362.391 797.034 359.897 795.493C357.051 793.694 355.265 793.509 352.583 795.592C351.446 795.178 350.606 794.062 349.614 793.36C347.121 791.125 344.839 788.662 342.463 786.361C338.117 781.985 334.317 777.083 330.908 771.947C328.492 768.053 325.642 764.405 322.897 760.763C320.057 756.698 317.333 752.373 313.397 749.313C312.318 748.348 310.976 747.67 310.285 746.409C309.753 744.227 310.019 741.922 309.626 739.707C309.505 738.855 309.344 738.011 309.178 737.165C311.062 735.706 313.095 734.45 315.183 733.291C315.185 733.289 315.187 733.287 315.188 733.287C315.201 733.282 315.212 733.275 315.224 733.268C321.139 729.761 328.411 726.045 330.056 718.744C330.838 715.999 329.727 713.266 329.378 710.56C329.164 708.296 328.992 705.943 327.798 703.943C325.252 699.533 320.801 696.522 316.263 694.438C313.416 693.299 310.489 692.377 307.507 691.675C306.41 691.341 305.3 691.055 304.175 690.864Z" fill="white"/>
<path fill-rule="evenodd" clip-rule="evenodd" d="M702.375 524.168C702.629 527.281 703.175 530.48 703.56 533.562C704.67 538.868 706.128 544.103 707.437 549.364C708.211 552.234 709.228 554.944 710.421 557.645C711.313 559.533 712.156 561.838 714.241 562.667C715.541 563.121 716.881 562.996 718.225 563.068C718.465 563.104 718.86 563.099 719.29 563.112C719.361 562.277 719.449 561.446 719.556 560.617C719.82 558.012 720.601 555.539 721.784 553.214C722.967 550.408 723.122 547.268 723.003 544.289C722.925 541.598 722.428 538.942 722.307 536.254C722.249 533.994 722.565 531.804 722.833 529.581C723.005 527.81 723.158 526.051 722.883 524.289C722.24 521.576 720.594 519.135 720.5 516.286C716.99 518.219 712.884 518.557 709.264 520.226C707.475 520.918 706.39 522.626 704.768 523.552C704.16 523.839 703.464 523.803 702.808 523.782C702.672 523.778 702.509 523.78 702.339 523.776C702.343 523.915 702.35 524.051 702.375 524.168ZM717.373 581.408C717.33 581.469 717.295 581.538 717.286 581.614C717.275 581.693 717.283 581.771 717.295 581.851C717.319 581.993 717.362 582.132 717.42 582.264C717.483 582.407 717.55 582.55 717.621 582.687C717.74 582.922 717.87 583.151 718.001 583.381C718.084 583.525 718.163 583.67 718.243 583.816C718.299 583.921 718.351 584.024 718.406 584.129C718.46 584.279 718.512 584.429 718.568 584.577C718.606 584.683 718.648 584.79 718.706 584.889C718.771 585.003 718.867 585.102 719.002 585.102C719.012 585.102 719.024 585.101 719.033 585.099C719.212 585.079 719.288 584.898 719.323 584.747C719.366 584.562 719.382 584.373 719.384 584.185C719.386 583.834 719.341 583.487 719.256 583.15C719.162 582.781 719.017 582.412 718.811 582.091C718.813 582.093 718.813 582.095 718.814 582.095C718.813 582.093 718.809 582.089 718.809 582.086C718.805 582.08 718.804 582.075 718.8 582.071C718.802 582.073 718.804 582.076 718.805 582.08C718.662 581.863 718.489 581.683 718.279 581.531C718.279 581.531 718.279 581.533 718.281 581.533C718.275 581.529 718.27 581.525 718.265 581.522C718.263 581.52 718.261 581.518 718.259 581.518C718.107 581.417 717.934 581.318 717.751 581.278C717.724 581.273 717.695 581.271 717.668 581.271C717.556 581.271 717.438 581.316 717.373 581.408ZM707.226 770.557C707.285 770.672 707.309 770.813 707.278 770.976C707.276 770.994 707.273 771.012 707.271 771.032C707.372 771.178 707.417 771.362 707.372 771.534C707.81 773.725 707.965 775.989 708.323 778.157C708.83 775.463 708.647 772.531 707.481 770.053C707.403 770.217 707.334 770.407 707.226 770.557ZM722.478 579.721C722.533 579.452 722.576 579.179 722.605 578.897C722.657 578.635 722.628 578.178 722.599 577.67C722.527 577.602 722.444 577.542 722.355 577.492C722.35 577.482 722.345 577.477 722.337 577.468C722.153 577.248 721.898 577.107 721.625 577.034C721.625 577.034 721.625 577.034 721.627 577.034C721.625 577.034 721.623 577.033 721.621 577.033C721.618 577.033 721.616 577.033 721.614 577.031C721.614 577.033 721.614 577.033 721.616 577.033C721.373 576.975 721.115 576.977 720.885 577.078C720.831 577.103 720.775 577.136 720.733 577.177C720.695 577.215 720.666 577.249 720.646 577.298C720.628 577.342 720.623 577.389 720.619 577.436C720.612 577.578 720.686 577.703 720.764 577.817C720.816 577.893 720.874 577.963 720.928 578.035C721.093 578.252 721.256 578.469 721.417 578.684C721.444 578.74 721.469 578.796 721.496 578.852C721.594 579.054 721.69 579.26 721.804 579.452C721.88 579.58 721.981 579.737 722.126 579.797C722.137 579.824 722.149 579.853 722.16 579.883C722.165 579.86 722.171 579.836 722.176 579.813C722.18 579.815 722.184 579.815 722.187 579.815C722.207 579.818 722.229 579.822 722.249 579.822C722.326 579.822 722.401 579.793 722.46 579.741C722.466 579.733 722.473 579.728 722.478 579.721ZM689.816 802.626C684.741 801.911 681.251 797.748 681.003 792.706C680.96 791.773 680.459 790.998 680.189 790.13C680.03 789.514 680.001 788.875 680.003 788.243C679.961 786.637 680.383 785.061 680.515 783.479C680.533 782.818 680.167 782.241 680.068 781.602C679.978 781.025 680.019 780.444 680.117 779.873C680.294 778.515 681.287 777.544 682.126 776.549C683.576 774.628 684.367 772.195 684.365 769.847C684.354 768.675 684.195 767.507 684.179 766.333C684.104 764.966 684.358 763.571 684.162 762.218C683.828 761.625 683.012 761.446 682.71 760.789C681.893 759.278 681.965 757.384 682.28 755.739C682.441 755.158 682.898 754.748 683.216 754.256C683.499 753.745 683.522 753.169 683.538 752.62C683.571 751.874 683.227 751.203 682.983 750.519C682.551 749.007 682.567 746.94 683.84 745.838C684.052 745.665 684.32 745.567 684.528 745.388C684.685 745.209 684.71 744.955 684.804 744.742C685.052 744.01 685.645 743.464 686.343 743.155C687.559 742.568 688.937 742.525 690.219 742.162C691.405 741.84 692.574 741.445 693.754 741.103C694.897 740.758 696.031 740.368 697.053 739.939C697.76 739.622 698.558 739.322 698.959 738.617C700.156 735.546 702.384 733.104 704.837 730.952C707.441 728.522 710.116 726.174 712.684 723.706C715.572 720.897 718.981 718.586 720.885 715.03C720.426 708.838 720.424 702.638 720.742 696.44C720.84 690.834 720.722 685.227 720.863 679.627C720.965 674.872 721.1 670.116 721.004 665.359C721.057 656.876 720.192 648.418 719.051 640.019C717.939 632.414 716.501 624.851 715.541 617.221C714.823 612.235 714.451 607.155 715.387 602.17C715.865 598.892 716.646 595.672 717.368 592.444C717.386 592.33 717.406 592.204 717.436 592.079C717.395 592.039 717.362 591.993 717.333 591.942C715.859 588.972 714.508 586.125 712.452 583.473C710.508 581.02 707.86 579.197 706.139 576.561C704.124 573.651 703.328 570.188 701.639 567.178C699.748 564.331 697.637 561.625 695.919 558.664C692.865 553.477 690.506 547.926 688.184 542.385C686.674 539.166 685.208 535.938 684.197 532.52C683.217 529.116 681.804 525.922 681.583 522.374C681.347 516.7 685.683 509.29 689.425 505.171C689.756 504.761 690.174 504.392 690.409 503.921C690.32 502.974 689.839 501.865 690.602 501.065C694.255 498.272 697.782 495.325 701.446 492.543C704.084 490.332 706.504 487.879 708.897 485.404C711.382 483.012 713.87 480.604 716.485 478.353C717.324 477.618 718.332 477.041 719.055 476.2C719.48 475.591 719.514 474.816 719.784 474.14C720.507 472.117 722.744 471.315 724.752 471.409C726.524 471.432 728.079 470.495 729.763 470.085C732.25 469.496 734.727 469.998 737.131 469.295C737.263 469.076 737.434 468.874 737.574 468.721C738.503 467.66 740.048 467.745 741.27 468.171C741.82 468.357 742.144 467.732 742.561 467.489C742.961 467.196 743.404 466.974 743.858 466.779C739.673 465.364 740.986 462.289 740.389 458.673C740.187 457.415 739.858 456.18 739.633 454.926C739.246 452.42 739.409 449.873 739.579 447.357C739.666 446.211 739.785 445.062 739.76 443.913C739.718 442.492 739.266 441.104 739.243 439.688C739.248 439.639 739.256 439.596 739.268 439.556C737.825 439.35 736.385 439.083 735.006 438.904C732.412 438.6 729.615 438.432 727.45 436.861C726.283 435.692 727.119 433.609 727.851 432.402C729.426 430.462 732.047 430.014 734.349 429.561C736.366 429.23 738.308 428.957 740.279 428.5C740.624 428.356 740.95 428.177 741.257 427.971C742.162 426.957 742.91 425.879 743.703 424.808C747.488 419.538 753.148 414.866 759.977 415.148C761.722 415.099 763.382 415.359 765.062 415.486C765.753 415.459 766.379 415.132 767.055 415.038C768.752 414.781 770.602 415.849 770.802 417.636C773.249 418.832 775.608 420.239 777.324 422.356C779.364 424.977 781.183 427.947 781.872 431.228C783.091 436.084 782.371 441.124 781.745 446.013C781.512 447.653 781.322 449.125 781.232 450.729C781.169 452.032 780.948 453.349 780.255 454.474C779.653 455.482 778.836 456.386 778.539 457.549C778.091 459.948 781.158 461.984 782.574 463.801C783.608 463.529 784.724 463.691 785.652 464.221C788.12 465.642 790.71 467.024 793.481 467.685C796.669 468.493 799.991 468.726 802.933 470.236C813.273 474.79 816.34 483.859 818.213 494.184C819.401 500.01 820.472 505.893 821.387 511.765C822.116 516.541 823.304 521.303 823.839 526.094C823.901 526.967 823.371 527.752 822.582 528.116C822.336 528.235 822.007 528.435 821.685 528.555C822.072 530.719 822.179 532.923 822.51 535.098C823.143 538.219 823.604 541.388 824.443 544.463C825.595 548.168 827.465 551.635 828.095 555.501C830.129 564.914 829.937 574.63 831.131 584.161C831.328 585.814 831.401 587.498 831.84 589.109C832.44 590.876 833.421 592.365 833.753 594.204C834.243 595.947 833.811 597.931 834.844 599.499C837.347 603.057 841.778 605.177 841.293 610.206C841.228 611.196 840.72 612.045 840.186 612.849C839.255 614.719 839.879 616.827 839.75 618.801C839.701 621.522 839.284 624.284 838.108 626.759C837.609 627.921 836.982 629.019 836.419 630.152C837.104 633.889 837.79 637.631 838.475 641.368C839.678 647.935 840.881 654.5 842.083 661.065C843.262 667.513 844.445 673.958 845.624 680.407C846.821 686.949 848.022 693.489 849.219 700.03C850.431 706.644 851.641 713.257 852.854 719.867C854.073 726.525 855.29 733.18 856.511 739.836C857.714 746.389 858.913 752.945 860.114 759.497C861.249 765.704 862.383 771.911 863.524 778.119C863.711 779.14 863.897 780.164 864.087 781.186C864.112 781.327 864.083 781.464 864.014 781.583C864.152 782.068 864.231 782.59 864.112 783.067C863.995 783.551 863.741 783.969 863.345 784.279C862.908 784.648 862.266 784.776 861.956 785.287C861.106 787.771 861.631 790.586 861.797 793.162C862.841 793.276 863.872 793.482 864.868 793.823C867.047 794.457 871.062 796.988 867.722 799.012C865.64 800.22 863.28 800.236 860.985 800.577C859.642 800.726 858.287 800.795 856.942 800.641C850.406 799.828 854.558 794.285 857.956 792.259C857.983 792.173 858.023 792.102 858.07 792.042C857.846 790.441 857.779 788.803 857.475 787.224C857.273 785.518 856.026 783.26 857.515 781.851C858.032 781.463 858.739 781.387 859.208 780.915C859.392 780.691 859.224 780.375 859.215 780.115C859.2 779.965 859.236 779.818 859.312 779.698C858.329 774.65 857.339 769.605 856.352 764.555C855.017 757.721 853.677 750.884 852.343 744.048C851.006 737.21 849.672 730.376 848.333 723.54C847 716.718 845.666 709.895 844.333 703.074C843.018 696.361 841.702 689.648 840.394 682.934C839.045 676.009 837.689 669.084 836.334 662.16C835.045 655.582 833.761 649.005 832.475 642.427C831.176 635.785 829.874 629.142 828.579 622.499C828.574 622.469 828.568 622.44 828.561 622.409C828.306 623.742 827.775 625.063 826.523 624.866C825.78 624.682 825.384 623.963 825.002 623.365C824.445 622.441 823.923 621.531 823.194 620.745C820.736 618.63 819.354 615.694 819.007 612.509C818.329 608.051 819.074 603.571 819.741 599.161C819.83 595.653 819.193 592.229 818.495 588.818C817.971 586.224 817.206 583.549 816.256 581.121C813.918 574.131 810.86 567.395 809.061 560.236C807.706 554.765 807.404 549.098 806.227 543.594C805.836 541.818 805.189 540.118 804.574 538.411C804.501 538.875 804.436 539.338 804.384 539.804C803.424 547.171 801.707 554.41 800.315 561.695C799.942 563.626 799.588 565.563 799.49 567.536C799.373 570.507 799.329 573.55 799.132 576.487C798.968 579.347 799.109 582.259 798.358 585.048C798.04 586.38 796.879 587.281 795.687 587.763C795.36 588.293 795.363 588.986 795.177 589.584C794.801 591.035 794.379 592.639 794.662 594.122C796.351 594.693 796.423 595.634 796.338 597.242C796.276 599.511 796.41 601.784 796.39 604.053C796.396 606.112 796.324 608.165 796.242 610.219C796.219 612.3 796.275 614.393 795.998 616.46C795.521 619.578 794.613 622.606 793.737 625.628C793.289 627.614 792.924 629.613 792.426 631.588C791.647 636.565 791.871 641.658 790.972 646.627C789.766 654.112 787.703 661.461 785.198 668.606C783.303 674.648 781.552 680.731 779.243 686.633C778.517 688.559 777.595 690.401 776.678 692.239C776.416 693.505 774.276 695.783 774.121 696.601C773.767 697.387 773.826 698.249 773.765 699.089C773.783 701.257 771.925 702.308 770.611 703.704C770.227 704.319 770.296 705.103 770.059 705.779C769.851 706.541 769.52 707.283 769.059 707.928C767.891 709.617 765.741 710.181 764.346 711.646C763.216 712.934 762.505 714.525 761.543 715.937C759.986 718.245 758.315 720.536 756.165 722.329C754.714 723.18 754.772 724.59 754.996 726.064C755.195 727.464 755.45 728.857 755.615 730.251C756.062 733.456 756.168 736.704 756.389 739.929C756.525 742.135 756.552 744.339 756.516 746.546C756.552 748.891 757.094 751.194 757.136 753.545C757.239 755.644 757.143 757.756 756.828 759.837C756.55 761.875 755.785 763.811 755.458 765.804C755.4 766.227 755.376 766.651 755.382 767.078C756.025 768.844 757.167 770.367 758.185 771.947C759.261 773.512 760.272 775.16 760.682 777.035C761.207 778.834 761.272 780.718 761.715 782.534C762.393 784.689 762.61 786.873 762.348 789.108C762.187 791.041 761.076 792.631 760 794.148C759.622 795.879 759.51 797.976 758.051 799.19C755.904 800.59 753.128 800.251 750.687 800.664C746.746 800.963 742.811 801.439 738.856 801.455H738.84C736.022 801.347 732.141 801.546 732.309 797.679C732.358 796.007 733.336 794.569 734.128 793.158C734.555 792.542 734.758 791.766 735.226 791.187C735.657 789.973 735.657 788.727 735.091 787.462C734.492 786.102 733.275 785.101 732.884 783.631C732.244 781.75 732.202 779.757 732.161 777.794C732.051 776.076 731.801 774.363 731.363 772.698C730.748 770.427 729.604 768.537 728.417 766.56C727.481 764.769 726.869 762.834 726.256 760.915C726.207 760.771 726.153 760.626 726.104 760.478C725.634 760.89 725.178 761.316 724.737 761.757C722.348 764.091 720.806 767.272 718.413 769.574C717.606 770.553 716.279 770.772 715.188 770.134C714.637 769.872 714.078 769.485 713.461 769.417C712.393 769.424 711.289 769.292 710.504 768.535C709.817 767.8 708.799 768.051 708.172 768.73C708.993 769.849 709.318 771.286 709.66 772.614C709.922 774.062 710.383 780.693 707.879 780.05C707.531 779.911 707.354 779.588 707.251 779.25C707.012 778.388 706.911 777.494 706.797 776.611C706.772 776.408 706.745 776.205 706.719 776.004C706.367 779.73 706.137 783.479 706.005 787.213C705.991 787.762 706.056 788.638 705.28 788.606C704.924 788.582 704.663 788.268 704.679 787.917C704.808 785.237 704.867 782.55 705.092 779.875C705.245 778.018 705.428 776.16 705.609 774.305C704.594 776.452 703.593 778.614 703.043 780.917C702.12 784.022 701.762 787.247 701.592 790.47C701.149 794.376 702.082 799.376 698.657 802.144C697.181 802.776 695.574 803 693.952 803C692.557 803 691.154 802.836 689.816 802.626Z" fill="white"/>
</g>
<defs>
<clipPath id="clip0_0_1">
<rect width="1000" height="1000" fill="white"/>
</clipPath>
</defs>
</svg>
